<mxfile host="app.diagrams.net" modified="2022-07-27T02:31:56.838Z" agent="5.0 (Macintosh; Intel Mac OS X 10_15_7) AppleWebKit/605.1.15 (KHTML, like Gecko) Version/15.5 Safari/605.1.15" etag="wcUlvVmklcrUbzgkfKbR" version="20.1.3" type="github">
  <diagram id="jmHD1suptkRCfOVeMCuu" name="第 1 页">
    <mxGraphModel dx="1426" dy="825" grid="1" gridSize="10" guides="1" tooltips="1" connect="1" arrows="1" fold="1" page="1" pageScale="1" pageWidth="827" pageHeight="1169" math="0" shadow="0">
      <root>
        <mxCell id="0" />
        <mxCell id="1" parent="0" />
        <mxCell id="bU5JSZ7Kf3sYQQzrW88A-1" value="" style="shape=ext;double=1;rounded=0;whiteSpace=wrap;html=1;fillColor=#f5f5f5;fontColor=#333333;strokeColor=#666666;" vertex="1" parent="1">
          <mxGeometry x="60" y="30" width="630" height="590" as="geometry" />
        </mxCell>
        <mxCell id="bU5JSZ7Kf3sYQQzrW88A-2" value="RPC" style="text;strokeColor=none;fillColor=none;html=1;fontSize=24;fontStyle=1;verticalAlign=middle;align=center;" vertex="1" parent="1">
          <mxGeometry x="60" y="40" width="100" height="40" as="geometry" />
        </mxCell>
        <mxCell id="bU5JSZ7Kf3sYQQzrW88A-3" style="edgeStyle=orthogonalEdgeStyle;rounded=0;orthogonalLoop=1;jettySize=auto;html=1;exitX=0.5;exitY=1;exitDx=0;exitDy=0;fontSize=18;" edge="1" parent="1" source="bU5JSZ7Kf3sYQQzrW88A-4" target="bU5JSZ7Kf3sYQQzrW88A-11">
          <mxGeometry relative="1" as="geometry" />
        </mxCell>
        <mxCell id="bU5JSZ7Kf3sYQQzrW88A-4" value="&lt;font style=&quot;font-size: 18px;&quot;&gt;getSchedule&lt;/font&gt;" style="shape=ext;double=1;rounded=1;whiteSpace=wrap;html=1;" vertex="1" parent="1">
          <mxGeometry x="140" y="120" width="120" height="80" as="geometry" />
        </mxCell>
        <mxCell id="bU5JSZ7Kf3sYQQzrW88A-5" style="edgeStyle=orthogonalEdgeStyle;rounded=0;orthogonalLoop=1;jettySize=auto;html=1;exitX=0.5;exitY=1;exitDx=0;exitDy=0;entryX=0.458;entryY=0.125;entryDx=0;entryDy=0;entryPerimeter=0;fontSize=18;startArrow=none;" edge="1" parent="1" source="bU5JSZ7Kf3sYQQzrW88A-17" target="bU5JSZ7Kf3sYQQzrW88A-13">
          <mxGeometry relative="1" as="geometry" />
        </mxCell>
        <mxCell id="bU5JSZ7Kf3sYQQzrW88A-6" value="updateSchedule" style="shape=ext;double=1;rounded=1;whiteSpace=wrap;html=1;fontSize=18;" vertex="1" parent="1">
          <mxGeometry x="310" y="120" width="150" height="80" as="geometry" />
        </mxCell>
        <mxCell id="bU5JSZ7Kf3sYQQzrW88A-7" style="edgeStyle=orthogonalEdgeStyle;rounded=0;orthogonalLoop=1;jettySize=auto;html=1;exitX=0.5;exitY=1;exitDx=0;exitDy=0;entryX=0.5;entryY=0;entryDx=0;entryDy=0;fontSize=18;" edge="1" parent="1" source="bU5JSZ7Kf3sYQQzrW88A-8" target="bU5JSZ7Kf3sYQQzrW88A-15">
          <mxGeometry relative="1" as="geometry" />
        </mxCell>
        <mxCell id="bU5JSZ7Kf3sYQQzrW88A-8" value="createSchedule" style="shape=ext;double=1;rounded=1;whiteSpace=wrap;html=1;fontSize=18;" vertex="1" parent="1">
          <mxGeometry x="510" y="120" width="170" height="80" as="geometry" />
        </mxCell>
        <mxCell id="bU5JSZ7Kf3sYQQzrW88A-9" value="" style="endArrow=classic;html=1;rounded=0;fontSize=18;exitX=0.5;exitY=1;exitDx=0;exitDy=0;" edge="1" parent="1" source="bU5JSZ7Kf3sYQQzrW88A-11" target="bU5JSZ7Kf3sYQQzrW88A-10">
          <mxGeometry width="50" height="50" relative="1" as="geometry">
            <mxPoint x="400" y="460" as="sourcePoint" />
            <mxPoint x="450" y="410" as="targetPoint" />
          </mxGeometry>
        </mxCell>
        <mxCell id="bU5JSZ7Kf3sYQQzrW88A-10" value="DB find" style="shape=ext;double=1;rounded=1;whiteSpace=wrap;html=1;fontSize=18;" vertex="1" parent="1">
          <mxGeometry x="140" y="515" width="120" height="80" as="geometry" />
        </mxCell>
        <mxCell id="bU5JSZ7Kf3sYQQzrW88A-11" value="hit Cache?" style="shape=ext;double=1;rounded=1;whiteSpace=wrap;html=1;fontSize=18;" vertex="1" parent="1">
          <mxGeometry x="140" y="340" width="120" height="80" as="geometry" />
        </mxCell>
        <mxCell id="bU5JSZ7Kf3sYQQzrW88A-12" style="edgeStyle=orthogonalEdgeStyle;rounded=0;orthogonalLoop=1;jettySize=auto;html=1;exitX=0.5;exitY=1;exitDx=0;exitDy=0;fontSize=18;" edge="1" parent="1" source="bU5JSZ7Kf3sYQQzrW88A-13" target="bU5JSZ7Kf3sYQQzrW88A-14">
          <mxGeometry relative="1" as="geometry" />
        </mxCell>
        <mxCell id="bU5JSZ7Kf3sYQQzrW88A-13" value="DB update" style="shape=ext;double=1;rounded=1;whiteSpace=wrap;html=1;fontSize=18;" vertex="1" parent="1">
          <mxGeometry x="330" y="340" width="120" height="80" as="geometry" />
        </mxCell>
        <mxCell id="bU5JSZ7Kf3sYQQzrW88A-14" value="Clean Cache" style="shape=ext;double=1;rounded=1;whiteSpace=wrap;html=1;fontSize=18;" vertex="1" parent="1">
          <mxGeometry x="330" y="515" width="120" height="80" as="geometry" />
        </mxCell>
        <mxCell id="bU5JSZ7Kf3sYQQzrW88A-15" value="DB create" style="shape=ext;double=1;rounded=1;whiteSpace=wrap;html=1;fontSize=18;" vertex="1" parent="1">
          <mxGeometry x="535" y="340" width="120" height="80" as="geometry" />
        </mxCell>
        <mxCell id="bU5JSZ7Kf3sYQQzrW88A-16" style="edgeStyle=orthogonalEdgeStyle;rounded=0;orthogonalLoop=1;jettySize=auto;html=1;exitX=1;exitY=0.5;exitDx=0;exitDy=0;entryX=0;entryY=0.5;entryDx=0;entryDy=0;fontSize=18;" edge="1" parent="1" source="bU5JSZ7Kf3sYQQzrW88A-17" target="bU5JSZ7Kf3sYQQzrW88A-8">
          <mxGeometry relative="1" as="geometry" />
        </mxCell>
        <mxCell id="bU5JSZ7Kf3sYQQzrW88A-17" value="DB find is null?" style="shape=ext;double=1;rounded=1;whiteSpace=wrap;html=1;fontSize=18;" vertex="1" parent="1">
          <mxGeometry x="330" y="240" width="120" height="80" as="geometry" />
        </mxCell>
        <mxCell id="bU5JSZ7Kf3sYQQzrW88A-18" value="" style="edgeStyle=orthogonalEdgeStyle;rounded=0;orthogonalLoop=1;jettySize=auto;html=1;exitX=0.5;exitY=1;exitDx=0;exitDy=0;entryX=0.458;entryY=0.125;entryDx=0;entryDy=0;entryPerimeter=0;fontSize=18;endArrow=none;" edge="1" parent="1" source="bU5JSZ7Kf3sYQQzrW88A-6" target="bU5JSZ7Kf3sYQQzrW88A-17">
          <mxGeometry relative="1" as="geometry">
            <mxPoint x="385" y="200" as="sourcePoint" />
            <mxPoint x="384.96000000000004" y="350" as="targetPoint" />
          </mxGeometry>
        </mxCell>
      </root>
    </mxGraphModel>
  </diagram>
</mxfile>
